<?xml version="1.0" encoding="UTF-8" standalone="no"?>
<svg width="151px" height="125px" viewBox="0 0 151 125" version="1.1" xmlns="http://www.w3.org/2000/svg" xmlns:xlink="http://www.w3.org/1999/xlink">
    <!-- Generator: Sketch 48.1 (47250) - http://www.bohemiancoding.com/sketch -->
    <title>energise</title>
    <desc>Created with Sketch.</desc>
    <defs></defs>
    <g id="Page-1" stroke="none" stroke-width="1" fill="none" fill-rule="evenodd">
        <g id="energise" transform="translate(-2.000000, -9.000000)">
            <g id="ENERGISE.." transform="translate(46.492870, 21.972913) rotate(-9.000000) translate(-46.492870, -21.972913) translate(1.992870, 6.972913)">
                <path d="M3.45234955,19.083757 C2.70834955,18.939757 1.58034955,18.579757 1.58034955,17.619757 C1.58034955,16.803757 3.16434955,16.179757 3.59634955,16.011757 C3.62034955,15.651757 3.74034955,13.971757 3.78834955,13.635757 C3.78834955,13.587757 3.76434955,13.491757 3.76434955,13.467757 C3.26034955,13.467757 2.80434955,13.779757 2.27634955,13.779757 C1.74834955,13.779757 0.57234955,13.467757 0.57234955,12.747757 C0.57234955,11.163757 2.70834955,10.971757 3.78834955,10.707757 C4.19634955,9.987757 4.53234955,9.795757 5.18034955,9.795757 C5.39634955,9.795757 5.63634955,9.819757 5.94834955,9.843757 L6.47634955,9.651757 C8.10834955,9.099757 9.74034955,8.547757 11.4923496,8.307757 L11.6123495,8.307757 C11.9243496,8.307757 12.3563496,8.451757 12.3563496,8.859757 C12.3323495,9.387757 11.8043495,9.987757 11.3243496,10.203757 L6.95634955,12.075757 C6.33234955,12.339757 6.26034955,12.867757 6.26034955,13.395757 C6.26034955,13.803757 6.28434955,14.283757 6.28434955,14.835757 L9.81234955,12.939757 C9.83634955,12.915757 10.0283495,12.915757 10.1243495,12.915757 C10.4123496,12.915757 10.8443496,13.035757 10.8443496,13.467757 C10.8443496,14.931757 8.06034955,16.587757 6.11634955,17.739757 C5.92434955,18.411757 5.92434955,18.867757 5.92434955,19.563757 C5.92434955,20.259757 5.92434955,22.371757 6.71634955,22.371757 C6.76434955,22.371757 6.93234955,22.347757 6.95634955,22.347757 L8.46834955,21.507757 L12.1643496,18.219757 C12.4043495,18.003757 12.6923495,17.907757 13.0043496,17.883757 C13.2923496,17.883757 13.5083496,18.219757 13.5083496,18.483757 C13.5083496,18.819757 13.1243495,19.227757 13.0043496,19.419757 C11.8763496,21.555757 9.45234955,24.747757 6.78834955,24.747757 C3.45234955,24.747757 3.71634955,21.483757 3.45234955,19.083757 Z M12.2123496,23.475757 C12.2123496,22.491757 13.8923496,16.803757 13.8923496,12.987757 C13.8923496,12.771757 13.8683495,12.555757 13.8683495,12.339757 L13.8683495,12.147757 C13.8443496,12.075757 13.8443496,12.003757 13.8443496,11.907757 C13.8443496,11.139757 14.5883496,10.299757 15.3563496,10.299757 C18.1883495,10.299757 16.8923495,18.339757 19.5323495,19.227757 C20.6123496,9.363757 21.1163496,9.315757 21.8363496,9.315757 C22.6043496,9.315757 23.3483496,9.915757 23.3483496,10.803757 C23.3483496,11.019757 22.9643496,12.195757 22.9403496,12.339757 C22.5563496,14.115757 22.9643496,22.419757 20.4443495,22.419757 C18.3563496,22.419757 16.6283495,19.995757 16.1003496,18.195757 C16.0523495,18.291757 15.8843496,18.651757 14.8523496,23.235757 C14.7083495,23.907757 14.3963496,24.435757 13.7243496,24.435757 L13.6283496,24.435757 C13.0043496,24.411757 12.2123496,24.315757 12.2123496,23.475757 Z M25.6763495,19.083757 C24.9323495,18.939757 23.8043495,18.579757 23.8043495,17.619757 C23.8043495,16.803757 25.3883495,16.179757 25.8203495,16.011757 C25.8443495,15.651757 25.9643495,13.971757 26.0123495,13.635757 C26.0123495,13.587757 25.9883495,13.491757 25.9883495,13.467757 C25.4843495,13.467757 25.0283495,13.779757 24.5003495,13.779757 C23.9723495,13.779757 22.7963495,13.467757 22.7963495,12.747757 C22.7963495,11.163757 24.9323495,10.971757 26.0123495,10.707757 C26.4203495,9.987757 26.7563495,9.795757 27.4043495,9.795757 C27.6203495,9.795757 27.8603495,9.819757 28.1723495,9.843757 L28.7003495,9.651757 C30.3323495,9.099757 31.9643495,8.547757 33.7163496,8.307757 L33.8363495,8.307757 C34.1483495,8.307757 34.5803495,8.451757 34.5803495,8.859757 C34.5563495,9.387757 34.0283496,9.987757 33.5483495,10.203757 L29.1803495,12.075757 C28.5563495,12.339757 28.4843495,12.867757 28.4843495,13.395757 C28.4843495,13.803757 28.5083495,14.283757 28.5083495,14.835757 L32.0363496,12.939757 C32.0603495,12.915757 32.2523495,12.915757 32.3483496,12.915757 C32.6363495,12.915757 33.0683495,13.035757 33.0683495,13.467757 C33.0683495,14.931757 30.2843495,16.587757 28.3403495,17.739757 C28.1483495,18.411757 28.1483495,18.867757 28.1483495,19.563757 C28.1483495,20.259757 28.1483495,22.371757 28.9403495,22.371757 C28.9883495,22.371757 29.1563495,22.347757 29.1803495,22.347757 L30.6923495,21.507757 L34.3883496,18.219757 C34.6283495,18.003757 34.9163495,17.907757 35.2283496,17.883757 C35.5163496,17.883757 35.7323495,18.219757 35.7323495,18.483757 C35.7323495,18.819757 35.3483495,19.227757 35.2283496,19.419757 C34.1003496,21.555757 31.6763495,24.747757 29.0123495,24.747757 C25.6763495,24.747757 25.9403495,21.483757 25.6763495,19.083757 Z M35.9243496,12.627757 C35.4683496,12.339757 35.2763496,11.907757 35.2763496,11.403757 C35.2763496,10.347757 36.1403496,9.123757 37.1963496,9.123757 C38.9723496,9.123757 40.1003496,8.043757 41.8283496,8.043757 C43.5083496,8.043757 46.6763496,8.355757 46.6763496,10.659757 C46.6763496,11.571757 46.3403496,12.723757 41.0123496,18.627757 C41.2763496,18.627757 42.0443496,18.603757 44.0123496,18.603757 C45.3803496,18.603757 46.1483496,18.699757 46.1483496,19.731757 C46.1483496,19.827757 46.1243496,20.067757 45.0203496,20.451757 L39.3803496,21.003757 L39.3803496,23.547757 C39.3803496,24.147757 38.7083496,24.315757 38.1323496,24.315757 C37.6283496,24.315757 37.0523496,24.243757 37.0043496,23.739757 L35.9243496,12.627757 Z M38.8523496,11.883757 C38.8523496,13.467757 39.0203496,15.027757 39.0203496,16.683757 L39.0203496,17.187757 C40.4363496,16.131757 43.9643496,12.723757 43.9643496,10.995757 C43.9643496,10.419757 42.8603496,10.419757 42.6683496,10.419757 C41.6123496,10.419757 39.2843496,10.635757 38.8523496,11.883757 Z M45.6443496,18.171757 C45.6443496,14.475757 47.2763496,11.283757 50.0843496,8.883757 C50.5163496,8.499757 50.8283496,8.475757 51.3803496,8.475757 C52.0043496,8.475757 52.8203496,9.075757 52.8203496,9.795757 C52.8203496,10.323757 51.6443496,10.899757 51.3563496,11.259757 C49.5083496,13.563757 48.4043496,15.483757 48.4043496,18.435757 C48.4043496,18.675757 48.4043496,19.683757 48.4283496,19.899757 C48.6203496,20.715757 49.5803496,21.243757 50.3483496,21.243757 C51.6203496,21.243757 53.0363496,20.163757 53.9483496,19.347757 C53.9483496,19.323757 53.9483496,18.435757 53.4923496,18.435757 C52.8683496,18.435757 52.2923496,18.651757 51.6683496,18.651757 C50.9003496,18.651757 50.0603496,17.931757 50.0603496,17.115757 C50.0603496,16.467757 50.8043496,16.035757 51.3563496,15.867757 L56.8763496,14.211757 C56.9003496,14.211757 57.2603496,14.187757 57.3803496,14.187757 C58.1963496,14.187757 58.7243496,14.451757 58.7243496,15.339757 C58.7243496,16.611757 56.5883496,16.491757 56.3243496,17.523757 C56.4683496,18.627757 57.2603496,19.683757 57.2603496,20.859757 C57.2603496,20.955757 57.2843496,21.195757 57.2843496,21.531757 C57.2843496,22.299757 57.1643496,23.403757 56.4443496,23.403757 C54.7403496,23.403757 55.3883496,22.467757 54.6683496,22.131757 C53.4923496,23.067757 52.1243496,23.619757 50.6363496,23.619757 C47.1323496,23.619757 45.6443496,21.435757 45.6443496,18.171757 Z M61.6523496,22.707757 C60.1403496,22.707757 59.6843496,20.619757 59.6843496,18.123757 C59.6843496,14.907757 60.4283496,10.995757 60.6443496,9.843757 C60.7403496,9.315757 61.1483496,8.835757 61.7003496,8.835757 C62.3243496,8.835757 63.1883496,9.507757 63.1883496,10.155757 C63.1883496,13.083757 62.3003496,15.867757 62.3003496,18.843757 C62.3003496,20.307757 62.6363496,20.691757 62.6363496,21.867757 C62.6363496,22.419757 62.1323496,22.707757 61.6523496,22.707757 Z M63.1403496,23.163757 C63.1643496,22.731757 63.4043496,22.443757 63.8363496,22.443757 C64.1723496,22.443757 64.3883496,22.659757 64.6523496,22.659757 C65.7563495,22.659757 68.9483496,20.859757 68.9483496,19.587757 C68.9483496,18.771757 64.8923496,17.595757 64.8923496,15.075757 C64.8923496,13.179757 67.9163496,8.811757 70.2683495,8.667757 C70.9643495,8.691757 71.7803495,9.579757 71.7803495,10.179757 C71.7803495,11.307757 70.4123496,11.331757 69.7643496,11.979757 C69.0443496,12.675757 67.6283496,14.211757 67.6283496,15.243757 C67.6283496,16.923757 71.9003496,17.475757 71.9003496,19.587757 C71.9003496,22.275757 67.9883495,24.627757 65.5163496,24.627757 C64.7243496,24.627757 63.1403496,24.315757 63.1403496,23.163757 Z M74.7563496,19.083757 C74.0123496,18.939757 72.8843496,18.579757 72.8843496,17.619757 C72.8843496,16.803757 74.4683496,16.179757 74.9003496,16.011757 C74.9243496,15.651757 75.0443496,13.971757 75.0923496,13.635757 C75.0923496,13.587757 75.0683496,13.491757 75.0683496,13.467757 C74.5643496,13.467757 74.1083496,13.779757 73.5803496,13.779757 C73.0523496,13.779757 71.8763496,13.467757 71.8763496,12.747757 C71.8763496,11.163757 74.0123496,10.971757 75.0923496,10.707757 C75.5003496,9.987757 75.8363496,9.795757 76.4843496,9.795757 C76.7003496,9.795757 76.9403496,9.819757 77.2523496,9.843757 L77.7803496,9.651757 C79.4123496,9.099757 81.0443496,8.547757 82.7963496,8.307757 L82.9163496,8.307757 C83.2283496,8.307757 83.6603496,8.451757 83.6603496,8.859757 C83.6363496,9.387757 83.1083496,9.987757 82.6283496,10.203757 L78.2603496,12.075757 C77.6363496,12.339757 77.5643496,12.867757 77.5643496,13.395757 C77.5643496,13.803757 77.5883496,14.283757 77.5883496,14.835757 L81.1163496,12.939757 C81.1403496,12.915757 81.3323496,12.915757 81.4283496,12.915757 C81.7163496,12.915757 82.1483496,13.035757 82.1483496,13.467757 C82.1483496,14.931757 79.3643496,16.587757 77.4203496,17.739757 C77.2283496,18.411757 77.2283496,18.867757 77.2283496,19.563757 C77.2283496,20.259757 77.2283496,22.371757 78.0203496,22.371757 C78.0683496,22.371757 78.2363496,22.347757 78.2603496,22.347757 L79.7723496,21.507757 L83.4683496,18.219757 C83.7083496,18.003757 83.9963496,17.907757 84.3083496,17.883757 C84.5963496,17.883757 84.8123496,18.219757 84.8123496,18.483757 C84.8123496,18.819757 84.4283496,19.227757 84.3083496,19.419757 C83.1803496,21.555757 80.7563496,24.747757 78.0923496,24.747757 C74.7563496,24.747757 75.0203496,21.483757 74.7563496,19.083757 Z" id="ENERGISE" fill="#000000"></path>
                <text id=".." fill="#0E0E0E" font-family="DKMoreOrLess-Regular, DK More Or Less" font-size="24" font-weight="normal">
                    <tspan x="82.5563495" y="24.531757">..</tspan>
                </text>
            </g>
            <path d="M106.854295,132.654971 C131.787579,132.654971 152,112.442329 152,87.5087719 C152,64.7469423 143.086689,47.9447275 121.183149,44.8376398 C119.093312,44.5411897 109.025998,42.3625731 106.854295,42.3625731 C86.0840403,42.3625731 66.9714711,52.9950508 61.7085891,72.0925105 C60.6537374,75.9202588 61.7085891,83.345696 61.7085891,87.5087719 C61.7085891,102.192541 67.8388784,111.984066 78.6949674,120.229032 C86.2728996,125.984307 96.6046188,132.654971 106.854295,132.654971 Z" id="Oval-3" stroke="#AEC1B9" stroke-width="1.40350877"></path>
            <g id="heart" transform="translate(83.695906, 66.690058)" fill="#2B2C32" fill-rule="nonzero">
                <path d="M44.8380446,12.4158682 C44.5643485,9.41211433 42.9699638,8.02705506 41.3749261,5.94783473 C39.1493477,3.04666951 36.4066422,0.000861256115 32.6833213,0.000861256115 C28.4250221,0.000861256115 24.526044,2.28577373 22.332113,5.94783473 C20.1580483,2.23840464 16.4188643,0 12.2288015,0 C5.83789778,0 0.729666292,5.22007332 0.0749419989,12.4150069 C0.023116857,12.7328104 -0.189366225,14.4053698 0.456720544,17.1329679 C1.38784559,21.0671858 3.53858898,24.645705 6.67487382,27.4792376 C12.1268706,31.8031886 16.1769636,35.1632809 18.8251528,37.5595144 C19.6540467,38.3095452 20.8195784,39.6688493 22.3217479,41.6374269 L39.6116696,27.4792376 C42.7479545,24.6448437 43.5242772,21.0680471 44.4554023,17.1329679 C45.1014891,14.406231 44.889006,12.7336717 44.8380446,12.4158682 Z M42.7736764,16.7385126 C42.1621398,19.3196972 39.953525,23.6053076 37.0815484,26.199411 L22.332113,39.320648 C15.4277303,33.0705566 10.5956116,28.696811 7.835757,26.199411 C4.95859787,23.6035851 2.98924248,20.3308119 2.1384464,16.7376513 C1.52690973,14.1564668 1.77826166,12.6983602 1.77912542,12.6888863 C2.26731987,7.26618269 5.6966283,4.91847912 10.0009856,3.78593321 C10.7817296,3.58050685 11.3864201,1.72251223 12.2288015,1.72251223 C14.5705968,2.76442945 20.4184468,5.5657974 21.5322783,8.19485194 L22.3277942,10.074974 L23.1233101,8.19485194 C24.7877609,4.26407903 28.5399012,1.72337349 32.6841851,1.72337349 C36.3234852,1.72337349 37.7316431,2.72769955 39.6116696,5.94783473 C40.565497,7.58156336 42.9393833,10.5353781 43.1321337,12.6845801 C43.1338612,12.6983602 43.3852131,14.157328 42.7736764,16.7385126 Z" id="Shape"></path>
            </g>
        </g>
    </g>
</svg>