<?xml version="1.0" encoding="UTF-8" standalone="no"?>
<svg width="158px" height="160px" viewBox="0 0 158 160" version="1.1" xmlns="http://www.w3.org/2000/svg" xmlns:xlink="http://www.w3.org/1999/xlink">
    <!-- Generator: Sketch 48.1 (47250) - http://www.bohemiancoding.com/sketch -->
    <title>pause</title>
    <desc>Created with Sketch.</desc>
    <defs></defs>
    <g id="Page-1" stroke="none" stroke-width="1" fill="none" fill-rule="evenodd">
        <g id="pause" transform="translate(-3.000000, -9.000000)">
            <path d="M78.4063883,21.4907383 C94.1298165,21.4907383 104.701326,51.6222311 120.424754,96.5413972 C124.610253,108.498658 132.68408,127.089835 144.646236,152.314931 C148.57867,155.705773 148.318657,156.928285 143.866198,155.982468 C140.633606,155.295781 117.517686,149.311885 72.8637883,148.333501 C61.6299141,148.087363 41.5540433,149.414506 12.6361757,152.314931 C21.1916671,136.007591 27.0988492,122.787398 30.3577217,112.654351 C47.4710897,59.4425233 61.2930203,21.4907383 78.4063883,21.4907383 Z" id="Triangle-2" stroke="#2B2C32" stroke-width="0.5" transform="translate(80.024411, 88.891314) rotate(78.000000) translate(-80.024411, -88.891314) "></path>
            <g id="Pause" transform="translate(58.729412, 64.494118)">
                <path d="M23.7176471,47.1350707 C36.8165418,47.1350707 47.4352941,36.5835257 47.4352941,23.5675354 C47.4352941,15.84954 45.985124,7.37385228 40.2147246,3.07494415 C36.2536511,0.123971443 29.0493872,0 23.7176471,0 C16.2340557,0 10.0591367,5.85961492 5.71225178,11.2396128 C2.45057215,15.2764874 0,17.9877719 0,23.5675354 C0,28.9712964 2.63412481,37.9337875 5.71225178,41.9093075 C10.0483814,47.5095866 16.0569322,47.1350707 23.7176471,47.1350707 Z" id="Oval-2" stroke="#CC775D" stroke-width="0.632470588"></path>
                <g id="Rectangle-6" transform="translate(15.247059, 14.098436)" fill="#CC775D" fill-rule="nonzero">
                    <path d="M0,0 C0.674700262,0.326833582 1.37649401,0.490250372 2.10538123,0.490250372 C2.83426845,0.490250372 4.44600949,0.326833582 6.94060433,0 C6.61298213,1.04597915 6.44917104,1.74670979 6.44917104,2.10219192 C6.44917104,2.45767405 6.61298213,6.88772803 6.94060433,15.3923539 L6.94060433,19.0079131 C3.51993213,18.4227264 1.57379619,18.1301331 1.10219652,18.1301331 C0.630596836,18.1301331 0.263197998,18.4227264 0,19.0079131 C0.481837767,16.7058192 0.72275665,14.9792488 0.72275665,13.8282018 C0.72275665,12.6771548 0.481837767,8.06775422 0,0 Z" id="Shape"></path>
                    <path d="M9.81841588,0 L16.7590202,0 C16.3597711,4.45741558 16.1601466,7.6254011 16.1601466,9.50395657 C16.1601466,11.382512 16.3597711,14.5504976 16.7590202,19.0079131 C15.4736709,18.7161088 14.5309521,18.5702066 13.9308636,18.5702066 C13.3307752,18.5702066 11.9599592,18.7161088 9.81841588,19.0079131 C10.0949672,13.046293 10.2332428,8.55145185 10.2332428,5.5233898 C10.2332428,2.49532775 10.0949672,0.654197819 9.81841588,0 Z" id="Shape"></path>
                </g>
            </g>
            <g id="HIt-Pause.." transform="translate(115.584476, 25.017079) rotate(12.000000) translate(-115.584476, -25.017079) translate(67.084476, 10.017079)" fill="#000000">
                <path d="M2.5969886,19.8704081 C1.8289886,19.7504081 0.9649886,19.1984081 0.9649886,18.3344081 C0.9649886,17.1824081 2.5489886,17.9024081 2.5489886,16.7504081 C2.5489886,16.6784081 2.5489886,16.5824081 2.5249886,16.4864081 C2.3329886,14.8064081 2.1169886,13.0784081 1.9249886,11.9264081 C1.9249886,11.2304081 2.4289886,11.2304081 2.9569886,11.2304081 C4.7809886,11.2304081 5.0449886,13.4144081 5.0449886,15.1664081 C5.0449886,15.8144081 4.9969886,16.4144081 4.9969886,16.8464081 C5.5729886,16.8464081 6.9649886,16.7744081 7.2529886,16.2464081 L7.9009886,8.4704081 C7.9489886,7.9904081 8.5249886,7.7984081 8.9329886,7.7984081 C9.6049886,7.7984081 10.4449886,8.3744081 10.4449886,9.0704081 C10.3969886,12.0704081 9.8929886,15.0464081 9.8929886,18.0704081 C9.8929886,20.2544081 10.6369886,24.0224081 10.6369886,25.6304081 C10.6369886,26.0624081 10.4449886,26.1104081 10.0369886,26.1104081 C9.0529886,26.1104081 7.9249886,25.4144081 7.7809886,24.3824081 L7.0369886,18.9344081 C6.5809886,18.9344081 5.5729886,19.0304081 5.3329886,19.6064081 C5.2849886,19.9424081 5.2609886,20.2784081 5.2609886,20.6144081 C5.2609886,22.1984081 5.7409886,23.8304081 5.7409886,25.5344081 C5.7409886,26.0384081 5.5729886,26.5184081 4.9729886,26.5184081 C4.5649886,26.5184081 3.5329886,26.4464081 3.3649886,25.9664081 C2.6689886,24.1184081 2.9569886,21.8144081 2.5969886,19.8704081 Z M13.5649886,23.0864081 C12.0529886,23.0864081 11.5969886,20.9984081 11.5969886,18.5024081 C11.5969886,15.2864081 12.3409886,11.3744081 12.5569886,10.2224081 C12.6529886,9.6944081 13.0609886,9.2144081 13.6129886,9.2144081 C14.2369886,9.2144081 15.1009886,9.8864081 15.1009886,10.5344081 C15.1009886,13.4624081 14.2129886,16.2464081 14.2129886,19.2224081 C14.2129886,20.6864081 14.5489886,21.0704081 14.5489886,22.2464081 C14.5489886,22.7984081 14.0449886,23.0864081 13.5649886,23.0864081 Z M20.4769886,11.6384081 L16.3969886,13.3904081 C16.3489886,13.3904081 16.0369886,13.4144081 15.8929886,13.4144081 C15.1009886,13.4144081 14.3089886,12.8864081 14.3089886,11.9984081 L14.3089886,11.9024081 C14.3089886,11.5904081 14.3089886,11.2064081 14.6929886,11.0864081 C15.6769886,10.5344081 23.0929886,7.5824081 26.6209886,7.5824081 C27.7489886,7.5824081 28.4929886,7.9184081 28.4929886,8.7104081 C28.4929886,9.0704081 28.3249886,9.2144081 27.9649886,9.2864081 L23.7169886,10.5344081 C23.5009886,10.6304081 23.3809886,11.2064081 23.3809886,11.2544081 C23.3089886,12.3824081 23.0449886,17.7104081 23.0449886,18.8864081 C23.0449886,20.4944081 23.5489886,22.0784081 23.5489886,23.6864081 C23.5489886,24.3584081 23.1649886,24.7184081 22.5889886,24.7184081 C20.5729886,24.7184081 20.5249886,21.4544081 20.4769886,19.8944081 L20.4769886,19.7504081 C20.4529886,19.1264081 20.4529886,17.3984081 20.4529886,15.6944081 C20.4529886,13.9664081 20.4529886,12.2624081 20.4769886,11.6384081 Z M36.7969886,12.4784081 C36.4849886,12.2864081 36.1729886,11.7824081 36.1729886,11.4224081 C36.1729886,11.1344081 36.2689886,10.8224081 36.5329886,10.6784081 C38.4049886,9.5264081 39.4849886,8.8784081 41.5489886,8.8784081 C43.4449886,8.8784081 46.6369886,9.5504081 46.6369886,12.1664081 C46.6369886,15.6464081 43.5169886,18.0704081 40.1329886,20.7344081 L40.8289886,24.7424081 C40.8289886,25.2944081 40.8049886,26.0624081 40.0609886,26.0624081 C39.5089886,26.0624081 38.4289886,25.2944081 38.3329886,24.6224081 L36.7969886,12.4784081 Z M39.4849886,11.9264081 C39.4849886,12.1184081 39.4609886,12.3104081 39.4609886,12.5024081 C39.4609886,13.1744081 39.5329886,14.1584081 39.8929886,17.7344081 C41.6449886,16.6544081 43.9729886,14.4224081 43.9729886,12.2624081 C43.7329886,11.3504081 42.8929886,11.0144081 41.9809886,11.0144081 C40.9969886,11.0144081 39.9169886,11.4224081 39.4849886,11.9264081 Z M44.8609886,22.5104081 L44.8609886,22.1504081 C44.9089886,21.3344081 46.8529886,14.8544081 46.9729886,14.5904081 C47.0689886,14.3264081 47.9329886,12.3584081 48.2209886,11.7824081 C48.7729886,10.6304081 49.9009886,8.2544081 51.4609886,8.2544081 C52.7089886,8.2544081 53.3569886,9.0704081 53.6689886,10.1984081 L56.6689886,21.2624081 C56.6689886,21.8624081 56.6689886,22.5104081 55.9489886,22.5104081 C55.0369886,22.5104081 54.4609886,21.5504081 54.1969886,20.7344081 C54.0769886,20.3744081 53.5729886,18.6704081 53.4769886,18.2864081 L53.3089886,18.2864081 C51.8449886,18.7904081 49.8289886,19.1024081 48.3889886,19.8704081 C47.5009886,21.0464081 48.2689886,23.9264081 46.3489886,23.9264081 C45.6289886,23.9264081 44.8609886,23.2784081 44.8609886,22.5104081 Z M51.3649886,11.7824081 L51.0289886,12.1184081 C50.9569886,12.1904081 50.0929886,14.0384081 49.8049886,14.7584081 C49.6609886,15.0464081 49.1809886,16.3904081 49.0849886,16.7024081 L52.7809886,16.1744081 L51.3649886,11.7824081 Z M57.6289886,19.2464081 L57.6289886,18.9584081 C57.6289886,15.2864081 58.6609886,10.5584081 58.8769886,10.5584081 C58.8769886,10.5344081 59.7889886,10.3664081 60.1489886,10.3664081 C61.0129886,10.3664081 61.6849886,10.7504081 61.6849886,11.6384081 C61.6849886,12.2864081 61.3249886,12.7904081 61.1569886,13.4144081 C60.5809886,15.6944081 60.1729886,17.9504081 60.1729886,20.3024081 C60.1729886,20.4704081 60.1969886,20.6144081 60.1969886,20.6864081 C60.1969886,20.7344081 60.4369886,21.5504081 60.7489886,21.5504081 C63.6769886,19.3904081 64.6369886,13.7984081 64.7569886,10.4624081 C65.1169886,10.1504081 65.3089886,10.1024081 65.6929886,10.1024081 C66.3649886,10.1024081 67.1089886,10.7504081 67.1089886,11.4464081 C67.1089886,13.5824081 66.8689886,14.8544081 66.3169886,17.0864081 C66.1969886,17.5424081 65.4529886,19.6544081 65.2609886,20.0864081 C64.4929886,21.7424081 63.0289886,24.0944081 60.9889886,24.0944081 C58.1809886,24.0944081 57.6289886,21.5024081 57.6289886,19.2464081 Z M66.0529886,20.9504081 C66.0529886,20.4224081 66.4129886,20.1104081 66.9649886,20.1104081 C67.4689886,20.1104081 67.9249886,20.3264081 68.5969886,20.3264081 C69.7009886,20.3264081 74.2129886,19.0784081 74.2129886,17.8784081 C74.2129886,17.8544081 74.2129886,17.7824081 74.1889886,17.7824081 C72.3889886,16.6064081 67.8529886,16.4864081 67.8529886,13.3424081 C67.8529886,12.1664081 69.2449886,10.7504081 70.0369886,10.1984081 C71.0209886,9.4784081 72.9649886,8.1824081 74.3089886,8.1824081 C75.1249886,8.1824081 75.4849886,9.0224081 75.4849886,9.7184081 C75.4849886,10.8224081 74.8129886,10.6544081 73.9249886,11.1344081 C73.1809886,11.5424081 70.6369886,12.9104081 70.6369886,13.7504081 C70.6369886,14.0384081 70.9729886,14.1584081 71.3809886,14.3024081 L71.5009886,14.3504081 C73.1569886,14.9264081 77.1169886,15.6464081 77.1169886,18.1664081 C77.1169886,19.8944081 75.0289886,21.0464081 73.6609886,21.5744081 C73.1089886,21.7904081 70.5409886,22.6064081 68.5489886,22.6064081 C67.1569886,22.6064081 66.0529886,22.1984081 66.0529886,20.9504081 Z M79.2049886,19.7504081 C78.3169886,19.5104081 77.5729886,19.1024081 77.5729886,18.0944081 C77.5729886,17.7824081 78.6769886,17.3744081 79.2529886,17.1584081 C79.7809886,16.2944081 79.7809886,14.8544081 79.7809886,13.8704081 L79.7809886,13.6544081 C79.7809886,13.0304081 77.8609886,13.0064081 77.8609886,12.0704081 C77.8609886,10.9664081 79.7089886,10.9904081 80.0449886,10.1984081 C80.2609886,9.6464081 80.0929886,9.3104081 80.8609886,9.2624081 C81.1009886,9.2624081 82.2289886,9.2864081 82.4689886,9.2864081 C84.7249886,8.5664081 86.4529886,7.8944081 88.8049886,7.8944081 C89.2849886,7.8944081 89.9569886,7.9424081 89.9569886,8.3984081 C89.9569886,9.6464081 83.4769886,11.3504081 82.5889886,11.8784081 C82.3009886,13.3904081 82.2049886,13.9904081 82.1809886,15.2864081 C82.1809886,15.4064081 82.1809886,15.9584081 82.2049886,16.1024081 C83.9329886,15.6464081 85.7329886,14.2304081 87.3649886,14.2304081 C87.8449886,14.2304081 88.3489886,14.6864081 88.3489886,15.1904081 C88.3489886,15.3344081 87.6289886,16.3184081 86.8609886,16.6544081 L81.9649886,18.6944081 C81.9169886,21.2624081 81.9169886,21.2864081 81.9169886,21.2864081 C81.9169886,21.9344081 82.6609886,22.7984081 83.3089886,22.7984081 C84.0049886,22.7984081 84.1489886,22.5584081 84.8209886,21.9824081 C85.3009886,21.5744081 87.3889886,19.6784081 87.7969886,19.2704081 C87.8449886,19.2464081 88.0609886,19.2464081 88.1089886,19.2464081 C88.5889886,19.2464081 89.1169886,19.7984081 89.1169886,20.2784081 C89.1169886,20.9504081 87.9169886,22.3424081 87.6049886,22.6784081 C86.4529886,23.9264081 85.3009886,25.0544081 83.5249886,25.0544081 C80.5249886,25.0544081 79.4689886,22.2464081 79.2049886,19.7504081 Z M90.9169886,23.6864081 C90.9169886,23.4224081 90.9169886,23.2064081 91.8289886,23.0624081 C92.5249886,23.0624081 92.9569886,23.2064081 92.9569886,23.9744081 C92.9569886,24.4304081 92.5969886,24.9104081 92.0689886,24.9104081 L91.9489886,24.9104081 C91.3729886,24.8624081 90.9169886,24.1424081 90.9169886,23.6864081 Z M93.9169886,23.6864081 C93.9169886,23.4224081 93.9169886,23.2064081 94.8289886,23.0624081 C95.5249886,23.0624081 95.9569886,23.2064081 95.9569886,23.9744081 C95.9569886,24.4304081 95.5969886,24.9104081 95.0689886,24.9104081 L94.9489886,24.9104081 C94.3729886,24.8624081 93.9169886,24.1424081 93.9169886,23.6864081 Z"></path>
            </g>
        </g>
    </g>
</svg>