<?xml version="1.0" encoding="UTF-8" standalone="no"?>
<svg width="332px" height="356px" viewBox="0 0 332 356" version="1.1" xmlns="http://www.w3.org/2000/svg" xmlns:xlink="http://www.w3.org/1999/xlink">
    <!-- Generator: Sketch 48.1 (47250) - http://www.bohemiancoding.com/sketch -->
    <title>Relax</title>
    <desc>Created with Sketch.</desc>
    <defs></defs>
    <g id="matrebel-desktop-copy" stroke="none" stroke-width="1" fill="none" fill-rule="evenodd" transform="translate(0.000000, -2413.000000)">
        <g id="Refresh" transform="translate(-89.000000, 1327.000000)">
            <g id="Relax" transform="translate(49.000000, 1087.000000)">
                <text id="z" font-family="DKMoreOrLess-Regular, DK More Or Less" font-size="40" font-weight="normal" fill="#D8D4C0">
                    <tspan x="134.18" y="153.008929">z</tspan>
                </text>
                <text id="z" font-family="DKMoreOrLess-Regular, DK More Or Less" font-size="50" font-weight="normal" fill="#D8D4C0">
                    <tspan x="152.725" y="122.510417">z</tspan>
                </text>
                <text id="z" font-family="DKMoreOrLess-Regular, DK More Or Less" font-size="60" font-weight="normal" fill="#D8D4C0">
                    <tspan x="180.27" y="95.0491071">z</tspan>
                </text>
                <g id="moon" transform="translate(18.000000, 75.101190)" fill="#737474" fill-rule="nonzero">
                    <path d="M132.736871,105.748971 C131.454299,104.151143 129.291156,103.547086 127.405585,104.238829 C122.093442,106.177657 116.331442,107.171429 110.263156,107.171429 C81.2425848,107.171429 57.6202991,83.1260571 57.6202991,53.5857143 C57.6202991,35.805 66.2441563,19.2518857 80.687442,9.29468571 C82.3241563,8.16451429 83.1090134,6.12825714 82.6687277,4.16994286 C82.228442,2.21162857 80.6395848,0.730714286 78.6870134,0.438428571 C76.4472991,0.107171429 74.2171563,0 71.977442,0 C32.3900134,0 0.191727679,32.7749714 0.191727679,73.0714286 C0.191727679,113.367886 32.3900134,146.142857 71.977442,146.142857 C97.102442,146.142857 119.959013,133.145886 133.100585,111.3706 C134.163013,109.607143 134.019442,107.356543 132.736871,105.748971 Z M72.0742188,144.493676 C49.7688603,144.493676 31.1207899,132.82152 19.796875,116.914286 C13.705442,108.357364 10.9329696,94.8605213 8.02734375,79.5254371 C4.58990654,61.3836009 13.6135111,34.3656562 27.7421875,20.820917 C38.3143101,10.6857395 58.7929072,6.54034171 72.0742188,5.0307966 C61.2967902,16.6345395 56.578125,39.84474 56.578125,56.2029971 C56.578125,91.1213971 74.0749062,112.78261 108.378906,112.78261 C110.752621,112.78261 123.251491,117.157857 125.539062,116.914286 C117.844397,125.283149 105.742466,133.303656 94.96875,136.4 C89.4998814,137.971742 77.9588587,144.493676 72.0742188,144.493676 Z" id="Shape"></path>
                </g>
                <path d="M126.5,256.764881 C176.55493,256.764881 214.012617,238.358843 234.522894,195.550884 C242.639775,178.60976 253,148.48631 253,128.38244 C253,95.4959129 228.414004,62.8468318 208.377225,40.1322087 C185.21452,13.8738898 163.9597,0 126.5,0 C56.6359792,0 0,57.4787765 0,128.38244 C0,199.286104 56.6359792,256.764881 126.5,256.764881 Z" id="Oval-4" stroke="#979797" stroke-width="0.8"></path>
                <text id="relax.." transform="translate(280.983388, 311.721908) rotate(-11.000000) translate(-280.983388, -311.721908) " font-family="DKMoreOrLess-Regular, DK More Or Less" font-size="70" font-weight="normal" fill="#2B2C32">
                    <tspan x="192.608388" y="339.221908">relax..</tspan>
                </text>
            </g>
        </g>
    </g>
</svg>