<?xml version="1.0" encoding="UTF-8" standalone="no"?>
<svg width="139px" height="313px" viewBox="0 0 139 313" version="1.1" xmlns="http://www.w3.org/2000/svg" xmlns:xlink="http://www.w3.org/1999/xlink">
    <!-- Generator: Sketch 48.1 (47250) - http://www.bohemiancoding.com/sketch -->
    <title>Strength icon</title>
    <desc>Created with Sketch.</desc>
    <defs></defs>
    <g id="MR-Mobile" stroke="none" stroke-width="1" fill="none" fill-rule="evenodd" transform="translate(-118.000000, -4803.000000)">
        <g id="Private-tuition" transform="translate(48.000000, 4513.000000)">
            <g id="Strength-icon" transform="translate(70.000000, 290.000000)">
                <g id="Balance">
                    <path d="M61.8133641,242 C72.8369615,242 81.2009044,234.234698 88.2575368,226.8356 C94.9017586,219.868928 100.56682,213.585018 100.56682,203.190721 C100.56682,190.678821 97.4370494,177.54246 88.2575368,170.445392 C79.0780242,163.348324 70.7224041,164.381442 61.8133641,164.381442 C45.078933,164.381442 33.4992449,173.242469 28.0758053,188.121353 C26.5627934,192.272211 23.0599078,198.515485 23.0599078,203.190721 C23.0599078,224.624494 40.4104212,242 61.8133641,242 Z" id="Oval-7" fill="#D8D8D8" style="mix-blend-mode: multiply;"></path>
                    <path d="M10.8892867,108.482759 C36.0210593,109.235415 60.9834809,109.611743 85.7765517,109.611743 C102.619426,109.611743 119.292987,109.235415 135.797235,108.482759 L135.797235,130.307692 C102.355448,131.359154 73.3007812,131.884885 48.6332355,131.884885 C23.9656898,131.884885 11.3844116,131.359154 10.8894009,130.307692 L10.8892867,108.482759 Z" id="Rectangle-8" fill="#CC775D" style="mix-blend-mode: multiply;"></path>
                    <path d="M17.9376019,126.425708 L115.94221,126.425708 C114.842964,136.04188 114.293341,143.099031 114.293341,147.597162 C114.293341,152.095293 114.842964,160.871974 115.94221,173.927207 C88.0476126,172.392028 64.0982608,171.624438 44.0941547,171.624438 C24.0900486,171.624438 15.3711977,172.39197 17.9376019,173.927035 L17.9376019,126.425708 Z" id="Rectangle-18" fill="#AEC1B9" style="mix-blend-mode: multiply;" transform="translate(66.721044, 150.176458) rotate(8.000000) translate(-66.721044, -150.176458) "></path>
                    <path d="M32.9884793,93.0769231 C38.1079663,93.0769231 40.8331868,91.0093206 43.9454385,87.4175854 C46.5323653,84.4321084 49.9631336,80.3306824 49.9631336,76.066313 C49.9631336,66.6716125 42.363322,59.0557029 32.9884793,59.0557029 C29.6975439,59.0557029 27.8540955,61.1075856 23.7905386,62.1925356 C22.0711163,62.6516131 19.6142845,65.794584 18.7011449,66.7084715 C15.6247315,69.7874045 16.0138249,71.3649694 16.0138249,76.066313 C16.0138249,85.4610135 23.6136365,93.0769231 32.9884793,93.0769231 Z" id="Oval-8" fill="#D8D4C0"></path>
                    <path d="M0,93.0769231 L139,93.0769231 L139,110.408488 C110.472009,109.531295 92.7629711,109.092698 85.8728849,109.092698 C78.9827987,109.092698 50.3585037,109.531295 0,110.408488 L0,93.0769231 Z" id="Rectangle-9" fill="#2B2C32" style="mix-blend-mode: multiply;"></path>
                    <path d="M73.0230415,34.66313 C86.5344929,36.153611 97.5306526,36.8988515 106.011521,36.8988515 C114.492389,36.8988515 124.445982,36.8988515 135.8723,36.8988515 C137.957433,50.1756395 139,60.1063287 139,66.6909193 C139,73.2755098 139,75.4377763 139,73.1777188 C131.168795,75.2104332 125.443852,76.2267905 121.825173,76.2267905 C118.206493,76.2267905 101.939116,75.2104332 73.0230415,73.1777188 C75.7461094,68.9951197 77.1076433,65.4788441 77.1076433,62.628892 C77.1076433,59.77894 75.7461094,50.4570193 73.0230415,34.66313 Z" id="Rectangle-11" fill="#AEC1B9"></path>
                    <path d="M65.3364055,67.5509781 C81.5437308,66.5948 93.6992248,66.1167109 101.802887,66.1167109 C109.90655,66.1167109 115.045987,66.5948 117.221198,67.5509781 L117.221198,95.1531001 L65.3364055,95.1531001 C66.2355151,90.7480498 66.6850698,87.086322 66.6850698,84.1679169 C66.6850698,81.2495119 66.2355151,75.7105323 65.3364055,67.5509781 Z" id="Rectangle-19" fill="#D8D8D8" style="mix-blend-mode: multiply;" transform="translate(91.278802, 80.634906) rotate(-5.000000) translate(-91.278802, -80.634906) "></path>
                    <path d="M30.001421,31.961304 L100.46225,31.961304 L100.46225,40.3061316 C96.8357736,39.6765967 94.4632505,39.3618292 93.3446811,39.3618292 C92.2261116,39.3618292 71.1116916,39.6765967 30.001421,40.3061316 C30.1008519,37.5313799 30.1505673,35.4711241 30.1505673,34.1253644 C30.1505673,32.7796046 30.1008519,32.0582512 30.001421,31.961304 Z" id="Rectangle-12" fill="#CC775D" style="mix-blend-mode: multiply;" transform="translate(65.231836, 36.133718) rotate(323.000000) translate(-65.231836, -36.133718) "></path>
                    <path d="M88.9005446,13.4801061 C90.6163962,13.4801061 91.4167594,12.2098631 92.6049926,11.1500487 C93.9891054,9.91552456 95.626351,8.74299542 95.626351,6.74005305 C95.626351,3.01762454 92.6151049,0 88.9005446,0 C85.1859842,0 82.1747381,3.01762454 82.1747381,6.74005305 C82.1747381,7.77229435 81.76084,8.94593945 82.1747381,9.82046792 C83.2534232,12.0996301 86.2160436,13.4801061 88.9005446,13.4801061 Z" id="Oval-9" fill="#AEC1B9" style="mix-blend-mode: multiply;"></path>
                    <rect id="Rectangle-20" fill="#2B2C32" transform="translate(111.175823, 26.679221) rotate(24.000000) translate(-111.175823, -26.679221) " x="106.0514" y="21.543942" width="10.2488479" height="10.270557"></rect>
                </g>
                <g id="001-woman-stretching-and-flexing-legs-with-arms-up" transform="translate(27.000000, 241.000000)" fill="#2B2C32" fill-rule="nonzero">
                    <path d="M61.2840295,69.7914883 C60.7371499,69.4692537 60.0833317,69.1308998 59.3915823,68.773049 C58.1543243,68.1328785 56.0836462,67.061322 55.9593415,66.5600853 C55.6248157,65.210968 56.7647322,61.8541407 57.3772678,60.0507633 C57.5449877,59.557049 57.6897052,59.1305757 57.781715,58.8212367 C59.3784816,53.4571599 56.548113,51.9509936 55.9593415,50.9621834 C54.6623686,48.7836077 48.2483391,47.9378247 45.9718575,48.2216797 C47.2947273,43.1741573 48.0646241,40.3578372 47.8999509,39.5489502 C48.1180934,39.1212487 49.21886,37.9530576 48.8252285,36.5270277 C48.511428,35.3907026 49.1174426,34.8211302 47.8999509,33.8994141 C47.3331226,33.4702902 45.2918039,32.600145 44.5330614,32.2214584 C44.5035086,32.2067207 44.2844521,32.1112324 44.2276314,32.0845203 C43.3489681,31.6730917 43.0359214,30.960307 42.9263931,30.4526226 C43.7203587,30.6342345 44.2490865,30.4198091 44.7999268,29.5872803 C45.1608064,29.0416769 45.9611941,27.9396844 45.9718575,27.5099872 C45.9874502,26.8774478 45.6284161,28.1506031 45.5620786,27.5099872 C45.4929652,26.8425642 45.713182,24.2622906 45.5620786,23.6517697 C44.9883882,21.3339531 43.8699509,19.6664392 42.3272629,18.8291514 C41.9167224,18.6067036 41.4988698,18.4410576 41.0848256,18.3334414 C40.9513808,17.6555053 40.7650762,16.9873945 40.5198182,16.3338678 C39.6247027,13.9483497 36.7125307,10.5004861 35.5112236,7.78321535 L37.1300786,7.78321535 C37.8072039,5.47061834 38.4470074,3.28636247 36.9684521,0.671181237 C36.7652383,0.311641791 36.4138034,0.0721535181 36.0044816,0.0139701493 C35.589828,-0.0449808102 35.1817248,0.0896545842 34.8834545,0.3828742 C32.9439361,2.28834115 32.1670319,5.36576546 32.9945111,7.86672921 L33.908516,10.6300554 C33.9444668,10.7207846 34.3182948,13.7773305 34.9910025,18.8291514 C34.4116757,19.4498252 35.2460098,21.2788401 34.9910025,21.9837953 C34.6196118,21.9122559 34.158801,21.697484 33.6589926,21.5926311 C33.4994988,21.5591642 33.3369582,21.5422772 33.175484,21.5422772 C32.3371892,21.5422772 31.5729287,21.9839488 31.1310074,22.7240597 C29.2847174,25.8163753 33.7276953,31.8502516 33.917656,32.1055522 C34.0060098,32.2242217 34.1428059,32.289774 34.2834103,32.289774 C34.4841867,32.289774 34.663941,32.1672665 34.720457,31.9799744 C34.7475725,31.8898593 34.7498575,31.8025075 34.7311204,31.7228316 C34.6675971,31.1707804 34.1310762,26.453936 34.1310762,24.6138678 C34.1310762,23.721467 34.4634693,23.3886397 34.8222162,23.2883923 C34.9829287,24.700145 37.2403686,26.9048188 37.5590516,27.5099872 C37.2035037,28.6034968 34.4730663,33.530661 37.2723587,37.698678 C37.3562948,38.0103198 37.4550074,38.3471386 37.5590516,38.7020725 C38.2299312,40.9904136 41.6393219,43.3936039 40.5198182,46.2763672 C39.8816904,47.9202393 36.3486044,49.6644947 35.5112236,50.3639232 C35.2565209,50.5770064 35.0060835,50.7728955 34.7640246,50.9621834 C33.9740197,51.5799403 33.2918673,52.1135693 33.0039558,52.8377143 C32.5416216,54.0026098 32.488457,55.0801535 32.4980541,55.6186951 C31.2854742,56.1055011 26.708013,57.5826165 23.907959,59.3293457 C22.2315216,60.3748041 20.6306143,60.4321023 18.9910418,60.0429339 C18.7847813,59.9941151 18.5800442,59.9434542 18.3772875,59.8932537 C17.2213759,59.6072495 16.2066496,59.9199659 15.1713867,60.0429339 C13.119141,60.2862601 8.10981327,61.1677612 6.08453071,61.7862857 C5.60239312,61.9335096 5.09055037,61.8484606 4.68016216,61.5526311 C4.21798034,61.2194968 3.57741523,59.8935608 3.04774939,60.0507633 C1.92169533,60.3851258 1.11874201,62.5759829 0.926496314,63.7422601 L0.136186732,68.5197441 C0.0971891892,68.755855 0.0915528256,68.9976461 0.135425061,69.2328358 C0.157970516,69.3533475 0.193921376,69.483838 0.250742015,69.6126397 C0.546422604,70.2827463 1.27686486,71.3079403 3.04774939,71.3077868 C3.22780835,71.3077868 3.41914005,71.297194 3.62128747,71.2744733 C4.75328256,71.1476674 5.40314005,70.8004094 5.60772482,70.2125885 C5.87446192,69.4463795 5.3819656,68.7968443 5.11279115,68.6488529 C4.67269779,68.4069083 4.10266339,68.2326652 4.10266339,68.2326652 L6.633086,66.4741151 C7.29848157,66.0117186 8.10920393,65.7763753 8.91657494,65.8133731 L24.5727174,66.5177143 C24.7268796,66.5166397 27.2323194,64.854806 31.1310074,63.7422601 C34.6656167,62.7334925 40.0998329,62.2356333 43.4763194,57.8969041 C45.066688,58.3769552 48.5251302,57.1761365 51.9659017,55.884742 C52.1496167,55.8158124 52.3308943,55.7478038 52.5024226,55.6839403 C51.9194398,57.0247676 52.5606143,59.1058593 52.5024226,61.7862857 C52.451086,64.1457058 51.6650418,66.2155906 51.7037346,66.6406823 L51.0634742,69.4371684 C51.0011695,69.7093561 51.0025405,69.9962814 51.092113,70.2606397 C51.2782654,70.809774 51.7540049,71.1797527 52.3101769,71.2387036 L60.5995921,71.9760512 C61.2409189,71.9829595 61.6770516,71.661032 61.8313661,71.1524264 C61.9884226,70.6309254 61.7507813,70.0665928 61.2840295,69.7914883 Z M33.2164619,24.6135608 C33.2164619,25.8624307 33.4455725,28.3027548 33.6238034,30.0117186 C32.367199,27.9330832 30.9381523,24.8324776 31.9135479,23.1987377 C32.1886634,22.7380299 32.6601376,22.4630789 33.1748747,22.4630789 C33.2737396,22.4630789 33.3739754,22.4735181 33.4720786,22.4940896 C33.6629533,22.5341578 33.8495627,22.5961791 34.0218526,22.666951 C33.4429828,23.1055522 33.2164619,23.9000085 33.2164619,24.6135608 Z M35.712457,22.9190277 C35.712457,22.7756418 35.8347813,22.3391898 35.8384373,22.3284435 C35.9679214,21.960307 36.1787518,21.5686823 36.4387862,21.1954797 C36.5746683,22.6403923 36.6151892,24.1348913 36.5027666,25.6105075 C36.1042604,24.7050576 35.712457,23.624597 35.712457,22.9190277 Z M37.207769,27.3767335 C37.2105111,27.3690576 37.2112727,27.3610746 37.2135577,27.3532452 C37.2201081,27.3322132 37.2268108,27.3113348 37.2303145,27.2889211 C37.2307715,27.2861578 37.2310762,27.2833945 37.2315332,27.2807846 C37.2315332,27.2806311 37.2315332,27.2803241 37.2316855,27.2801706 C38.4115135,19.6774925 35.145317,11.2573305 34.7899214,10.3722985 C34.7762113,10.338064 34.7638722,10.3044435 34.7522948,10.2692878 L33.86114,7.57519829 C33.1405995,5.39692964 33.8232088,2.71051599 35.5211253,1.04223454 C35.6154201,0.949663113 35.7453612,0.906985075 35.8765209,0.925867804 C35.9511646,0.936460554 36.0891794,0.976682303 36.1740295,1.12697655 C37.4597297,3.40150107 36.9006634,5.31111301 36.2532432,7.52238806 L36.1881966,7.74452878 C36.1574251,7.84984222 36.1645848,7.96160341 36.2092187,8.06185075 C37.4199705,10.7837271 38.7567027,14.2398806 39.6647666,16.6596333 C40.2014398,18.0896546 40.4506585,19.5913689 40.4060246,21.1228657 L40.1901671,28.5344136 C40.1493415,29.9320426 40.2868993,31.3318209 40.5991843,32.6946013 C40.6479312,32.9075309 40.8360639,33.0516844 41.044,33.0516844 C41.1385995,33.0516844 41.2376167,33.022209 41.3253612,32.9554286 C41.470688,32.844742 41.5268993,32.6511557 41.4860737,32.4721535 C41.1940491,31.1908913 41.0654791,29.8752409 41.1038673,28.5615864 L41.3197248,21.1500384 C41.3373956,20.5442559 41.3113464,19.9429254 41.2441671,19.3480426 C41.4606339,19.427258 41.6780147,19.5235139 41.8941769,19.6406482 C43.5486781,20.5385757 44.3197936,22.438823 44.6751892,23.8748316 C45.326113,26.5053646 45.0001179,29.0820128 44.7772531,29.4188316 C44.4980246,29.8410064 43.2944324,29.6535608 42.5691695,29.3941151 C42.4349631,29.3457569 42.286285,29.3634115 42.1667027,29.4415522 C42.0472727,29.519693 41.9706486,29.6494158 41.9598329,29.7926482 C41.9008796,30.565919 42.2347961,32.1663454 43.8541081,32.9210405 C43.9973022,33.581629 44.3173563,35.7411684 42.7425258,36.9881962 C41.0695921,38.3127505 38.557145,37.3710704 38.0017346,37.1371087 C35.2321474,32.9511301 37.1875086,27.4321535 37.207769,27.3767335 Z M39.2436738,46.9440037 C40.2992845,43.8583413 39.4689542,40.6441407 38.8626006,38.2973493 C38.8466954,38.2360625 38.8313117,38.1761178 38.8157976,38.116024 C39.2945184,38.2857183 39.9534113,38.4576493 40.6645829,38.4576493 C41.4514998,38.4576493 42.3003427,38.246948 43.0321129,37.5891963 C43.8714387,36.8349663 44.3398603,35.7074984 44.3873152,34.3286206 C44.398527,34.0032489 44.3847078,33.7008412 44.3608499,33.4383966 C45.8148731,34.3864777 46.7007413,35.4678686 46.9969433,36.6607986 C47.3156994,37.9446894 46.8313727,38.9161817 46.7725755,39.0272733 C46.7042613,39.126883 46.0242483,40.0640786 44.8574315,39.8290714 C44.6453186,39.7864241 44.4418101,39.9485135 44.4042633,40.1918712 C44.3667166,40.4352289 44.5086902,40.6672538 44.721455,40.7101992 C44.9011057,40.7464345 45.0721519,40.7626881 45.2348544,40.7626881 C45.9259489,40.7626881 46.4625542,40.4695256 46.8300689,40.1708458 C46.9776485,41.5164707 47.1033257,44.540399 46.0531906,48.696716 C45.700147,50.0930405 45.2332899,51.4556647 44.659529,52.7729576 C39.6901931,54.3698434 37.6281215,51.3214601 37.1046835,50.3278986 C37.8442759,49.5905188 38.6941618,48.550433 39.2436738,46.9440037 Z M6.11316953,65.7157356 L2.85352334,67.9812026 C2.68077641,68.1012537 2.60735135,68.3281535 2.68976413,68.5344819 C2.7404914,68.6615949 2.85169533,68.7546269 2.97950369,68.8014499 L4.29018673,69.2818081 C4.48578378,69.3535011 4.64893366,69.5022601 4.72190172,69.6986098 C4.75175921,69.7788998 4.76333661,69.8535096 4.74399017,69.9083156 C4.69067322,70.0589168 4.33801966,70.2672409 3.51937592,70.3590448 C1.96815725,70.5325203 1.35470762,69.8326311 1.11737101,69.3407591 C1.10914496,69.3238721 1.09985258,69.2747463 1.09040786,69.2107292 C1.04485995,68.900162 1.05110565,68.5840682 1.10228993,68.2744222 L1.82709582,63.893322 C1.96236855,63.0727676 2.56165111,62.3903795 3.35394103,62.1550362 C3.61565111,62.0775096 3.91255037,62.132162 4.14760197,62.3016461 C4.78115971,62.758209 5.60361179,62.8949936 6.34883047,62.6676333 C8.3508059,62.0563241 13.2212334,60.6091087 15.2006634,60.3743795 C16.0712531,60.2712154 17.0851892,60.522064 18.158688,60.7876503 C18.235312,60.806533 18.3134595,60.8252623 18.3906929,60.8442985 L17.9411548,65.2973987 L8.95633415,64.8931855 C7.94986241,64.846516 6.94141032,65.1400426 6.11316953,65.7157356 Z M24.5981572,65.5969126 L18.8556167,65.3385416 L19.2880934,61.0546183 C20.9133464,61.4041791 22.7430319,61.5753518 24.5279312,60.4620384 C27.653828,58.5118977 33.0816462,56.376 33.1360295,56.354661 C33.3284275,56.2792836 33.4466388,56.0824733 33.424855,55.8755309 C33.423484,55.8627889 33.2959803,54.5799915 33.8518477,53.1797527 C34.0472924,52.6878806 34.6388059,52.225177 35.3237002,51.6895522 C35.4381032,51.6000512 35.5546388,51.5085544 35.6728501,51.4149083 C35.9996069,51.9261237 36.6244816,52.7350107 37.6428354,53.4287591 C39.0589337,54.3931599 40.6276708,54.7252196 42.1171941,54.7252196 C43.0017985,54.7252196 43.8568501,54.6067036 44.6371057,54.4350704 C44.332742,54.9831301 44.0076609,55.5227463 43.6614054,56.0526908 C43.5797543,56.1801109 43.1219902,56.8460725 42.965543,57.0563923 C36.8653219,65.2356844 25.0367273,65.5872409 24.5981572,65.5969126 Z M51.6456953,55.0215096 C49.7829533,55.7206311 45.6996364,57.2525885 44.0678329,57.0904733 C44.0995184,57.0445714 44.3429484,56.6868742 44.4267322,56.5562303 C45.8326241,54.4037527 46.9085602,52.0954542 47.6292531,49.6912068 C48.306226,49.6026269 50.0874693,49.3918465 51.9563047,49.3569979 C54.8678673,49.3021919 56.7987027,49.7126994 57.2567715,50.4822857 C58.1428993,51.9707974 57.8179705,54.6526055 57.403774,56.5984478 C55.4120049,56.9225245 53.9288796,56.4197527 53.2989779,56.1400426 C53.4682211,55.7326055 53.6615332,55.4030021 53.8781523,55.1555309 C54.0062654,55.0093817 54.0289631,54.7978337 53.9351253,54.6274286 C53.8414398,54.4568699 53.6504128,54.364452 53.4604521,54.3965373 C53.201484,54.4399829 52.6887273,54.6300384 51.6456953,55.0215096 Z M60.9539214,70.890678 C60.9351843,70.9477868 60.8701376,71.0775096 60.6865749,71.0589339 L52.3971597,70.3215864 C52.2468059,70.3056205 52.1154939,70.2285544 52.0277494,70.1045117 C51.9400049,69.9804691 51.9104521,69.8303284 51.9442703,69.6818763 L52.6098182,66.7753177 C52.6210909,66.7263454 52.6242899,66.6759915 52.6194152,66.6259446 C52.6171302,66.6032239 52.3939607,64.3130405 52.4504767,61.7411514 C52.4934349,59.7871727 52.6827862,58.1984136 53.00543,57.0180128 C53.5981622,57.2745416 54.6716609,57.6277868 56.1000983,57.6277868 C56.4401081,57.6277868 56.8022064,57.6046055 57.1801474,57.5583966 C57.0756462,57.9715139 56.978,58.3157015 56.9064029,58.5565714 C56.8192678,58.8490235 56.67714,59.2676674 56.5124668,59.7524776 C55.7797396,61.9100213 54.6725749,65.1704392 55.0727568,66.7834542 C55.2825209,67.629032 56.6865848,68.4087505 58.9740344,69.5923753 C59.6639558,69.9493049 60.3156413,70.2865842 60.8446978,70.5997612 C60.9991646,70.6911045 60.9725061,70.8335693 60.9539214,70.890678 Z" id="Shape"></path>
                </g>
            </g>
        </g>
    </g>
</svg>