<?xml version="1.0" encoding="UTF-8" standalone="no"?>
<svg width="251px" height="97px" viewBox="0 0 251 97" version="1.1" xmlns="http://www.w3.org/2000/svg" xmlns:xlink="http://www.w3.org/1999/xlink">
    <!-- Generator: Sketch 48.1 (47250) - http://www.bohemiancoding.com/sketch -->
    <title>unwind</title>
    <desc>Created with Sketch.</desc>
    <defs></defs>
    <g id="Page-1" stroke="none" stroke-width="1" fill="none" fill-rule="evenodd">
        <g id="unwind" transform="translate(1.000000, -8.000000)">
            <g id="UNWIND.." transform="translate(64.000000, 0.000000)" fill="#000000">
                <path d="M0.7673403,19.565482 C1.0313403,16.085482 1.7513403,13.373482 2.0153403,10.157482 C2.0393403,9.701482 2.8553403,9.581482 3.1913403,9.557482 C3.6713403,9.581482 4.4633403,10.253482 4.4633403,10.877482 C4.2473403,13.829482 3.1913403,16.709482 3.1913403,19.853482 C3.1913403,20.669482 3.2633403,21.557482 3.6473403,21.557482 C4.8953403,21.557482 7.9193403,16.997482 7.9193403,11.549482 C7.8953403,11.141482 7.8953403,10.109482 7.8953403,9.941482 C8.0153403,9.293482 8.6633403,8.981482 9.1913403,8.981482 C9.9353403,8.981482 10.5593403,9.581482 10.6073403,10.349482 L10.7033403,21.845482 C10.7033403,21.845482 10.7273403,21.893482 10.7273403,21.917482 C10.6793403,22.277482 10.1753403,22.661482 9.8873403,22.661482 C9.5513403,22.661482 8.7113403,22.205482 8.6393403,21.893482 L8.5913403,18.029482 C8.1113403,19.829482 5.9753403,24.077482 3.7433403,24.077482 C1.4633403,24.077482 0.7673403,21.821482 0.7673403,19.565482 Z M11.6873403,23.429482 C11.6873403,22.445482 13.3673403,16.757482 13.3673403,12.941482 C13.3673403,12.725482 13.3433403,12.509482 13.3433403,12.293482 L13.3433403,12.101482 C13.3193403,12.029482 13.3193403,11.957482 13.3193403,11.861482 C13.3193403,11.093482 14.0633403,10.253482 14.8313403,10.253482 C17.6633403,10.253482 16.3673403,18.293482 19.0073403,19.181482 C20.0873403,9.317482 20.5913403,9.269482 21.3113403,9.269482 C22.0793403,9.269482 22.8233403,9.869482 22.8233403,10.757482 C22.8233403,10.973482 22.4393403,12.149482 22.4153403,12.293482 C22.0313403,14.069482 22.4393403,22.373482 19.9193403,22.373482 C17.8313403,22.373482 16.1033403,19.949482 15.5753403,18.149482 C15.5273403,18.245482 15.3593403,18.605482 14.3273403,23.189482 C14.1833403,23.861482 13.8713403,24.389482 13.1993403,24.389482 L13.1033403,24.389482 C12.4793403,24.365482 11.6873403,24.269482 11.6873403,23.429482 Z M24.1673403,10.973482 C24.2393403,10.109482 24.4553403,9.413482 25.4633403,9.413482 C26.1353403,9.413482 26.6873403,9.941482 26.7353403,10.829482 C26.5913403,12.101482 26.4953403,13.349482 26.4953403,14.549482 C26.4953403,15.917482 26.5913403,17.237482 26.8073403,18.533482 C29.8313403,16.373482 28.8473403,10.589482 31.3673403,10.589482 C32.3753403,10.589482 32.6393403,11.357482 32.6393403,12.221482 C32.6393403,13.469482 32.3273403,14.693482 32.3273403,16.037482 C32.3273403,17.213482 32.5193403,18.389482 33.1673403,19.493482 C33.4313403,19.493482 33.9593403,18.413482 34.0313403,18.077482 C35.5433403,10.181482 36.2393403,9.581482 36.7193403,9.581482 C37.4873403,9.581482 37.7753403,10.397482 37.8953403,11.093482 C37.8473403,11.573482 37.5353403,13.613482 37.4873403,14.045482 C37.0313403,17.549482 36.2633403,22.421482 33.1673403,22.421482 C31.3433403,22.421482 30.3593403,20.453482 29.8313403,18.701482 L29.6873403,19.085482 C29.0633403,20.549482 28.0553403,22.973482 26.5673403,22.973482 C24.3593403,22.973482 23.8073403,19.181482 23.8073403,15.869482 C23.8073403,14.165482 23.9993403,12.653482 24.1673403,10.973482 Z M40.8233403,22.661482 C39.3113403,22.661482 38.8553403,20.573482 38.8553403,18.077482 C38.8553403,14.861482 39.5993403,10.949482 39.8153403,9.797482 C39.9113403,9.269482 40.3193403,8.789482 40.8713403,8.789482 C41.4953403,8.789482 42.3593403,9.461482 42.3593403,10.109482 C42.3593403,13.037482 41.4713403,15.821482 41.4713403,18.797482 C41.4713403,20.261482 41.8073403,20.645482 41.8073403,21.821482 C41.8073403,22.373482 41.3033403,22.661482 40.8233403,22.661482 Z M42.5753403,23.429482 C42.5753403,22.445482 44.2553403,16.757482 44.2553403,12.941482 C44.2553403,12.725482 44.2313403,12.509482 44.2313403,12.293482 L44.2313403,12.101482 C44.2073403,12.029482 44.2073403,11.957482 44.2073403,11.861482 C44.2073403,11.093482 44.9513403,10.253482 45.7193403,10.253482 C48.5513403,10.253482 47.2553403,18.293482 49.8953403,19.181482 C50.9753403,9.317482 51.4793403,9.269482 52.1993403,9.269482 C52.9673403,9.269482 53.7113403,9.869482 53.7113403,10.757482 C53.7113403,10.973482 53.3273403,12.149482 53.3033403,12.293482 C52.9193403,14.069482 53.3273403,22.373482 50.8073403,22.373482 C48.7193403,22.373482 46.9913403,19.949482 46.4633403,18.149482 C46.4153403,18.245482 46.2473403,18.605482 45.2153403,23.189482 C45.0713403,23.861482 44.7593403,24.389482 44.0873403,24.389482 L43.9913403,24.389482 C43.3673403,24.365482 42.5753403,24.269482 42.5753403,23.429482 Z M55.5833403,12.413482 L55.5833403,12.221482 C55.1033403,12.509482 54.7673403,12.605482 54.2873403,12.605482 C53.9993403,12.605482 52.9193403,11.573482 52.9193403,11.309482 C52.9193403,9.269482 58.4153403,8.477482 59.9753403,8.477482 C62.6873403,8.477482 65.4953403,9.845482 65.4953403,12.941482 C65.4953403,17.357482 60.4793403,22.229482 56.7593403,24.317482 C56.3753403,24.317482 55.1753403,23.741482 55.0313403,23.597482 C54.9833403,23.597482 54.8873403,23.309482 54.8873403,22.301482 C54.8873403,20.885482 55.0553403,18.005482 55.5833403,12.413482 Z M58.3433403,11.525482 L57.3113403,21.269482 C59.8793403,19.325482 62.8793403,16.349482 62.8793403,12.773482 C62.8793403,10.949482 61.8713403,10.925482 60.0953403,10.925482 L59.5193403,10.925482 C58.9913403,10.925482 58.4153403,11.021482 58.3433403,11.525482 Z M61.9673403,23.261482 C61.9673403,22.997482 61.9673403,22.781482 62.8793403,22.637482 C63.5753403,22.637482 64.0073403,22.781482 64.0073403,23.549482 C64.0073403,24.005482 63.6473403,24.485482 63.1193403,24.485482 L62.9993403,24.485482 C62.4233403,24.437482 61.9673403,23.717482 61.9673403,23.261482 Z M64.9673403,23.261482 C64.9673403,22.997482 64.9673403,22.781482 65.8793403,22.637482 C66.5753403,22.637482 67.0073403,22.781482 67.0073403,23.549482 C67.0073403,24.005482 66.6473403,24.485482 66.1193403,24.485482 L65.9993403,24.485482 C65.4233403,24.437482 64.9673403,23.717482 64.9673403,23.261482 Z"></path>
            </g>
            <path d="M30.0522648,82.2473868 C36.6745911,51.7437028 42.9710184,41.5758082 48.9415469,51.7437028 C50.4300824,54.2786998 56.5750211,67.5240731 65.6122967,70.0590701 C69.3077132,71.0956513 71.1856532,39.1166081 78.4493866,40.0680531 C80.8267537,40.3794542 77.9265789,81.5706694 81.5004355,82.2473868 C84.1452469,82.7481874 98.1377826,76.2816203 102.767041,76.5331918 C103.877564,76.5935419 117.188037,76.0230103 130.124401,76.5331918 C145.46713,77.138275 185.350804,77.138275 249.775425,76.5331918" id="Line-2" stroke="#CC775D" stroke-width="0.5" stroke-linecap="square"></path>
            <path d="M19.3565803,76.2859321 C13.7248052,79.3120282 7.85822643,81.9368528 2.46125508,85.3642204 C1.69964578,85.8478833 1.43084131,86.9007645 1.24990926,87.7846436 C0.816445905,89.9021743 -0.486177898,92.3983391 0.644236353,94.2406177 C5.29377255,101.818142 20.3276121,92.8257437 23.4420369,90.8107397 C26.3744262,88.9135109 31.2160042,83.8719287 27.6772104,79.9177011 C24.3051672,76.1497997 18.3290576,71.4553959 12.9505118,71.0413037 C11.5699605,70.9350156 7.82403829,69.9379189 6.89831954,72.2526495 C6.46149254,73.3449217 4.62287834,80.3102998 5.68924216,81.7324514 C6.72321188,83.1114007 8.86864356,83.0909997 10.5300886,83.5494701 C14.7282909,84.7079504 18.9469606,85.8437608 23.2401459,86.5755662 C24.8971579,86.8580162 27.0728707,87.7423293 28.2828833,86.5755662 C30.6705911,84.2732022 29.0614543,80.2984876 27.0715375,78.7063553 C24.8719849,76.9464934 14.3460457,69.3624218 10.3281976,72.4522721 C9.31677979,73.2300839 9.23994941,74.813861 9.11912021,76.0840411 C8.83254863,79.0965375 8.64737444,82.1732303 9.11912021,85.1623294 C9.97552685,90.588736 20.6477779,91.7100662 24.2473323,90.8107397 C26.4670605,90.2561543 27.6088166,81.8526645 25.4586781,79.9177011 C22.3487816,77.1190273 15.2758242,74.0505005 10.9338705,75.6802591 C10.336154,75.9046129 10.3939424,76.8622367 10.3281976,77.4972779 C10.189751,78.8345579 9.58878038,80.4077303 10.3281976,81.5305604 C11.7327595,83.6634354 23.5959024,91.1141986 25.4586781,86.9793481 C28.6609767,79.8711249 16.8724999,77.5234267 12.1452163,78.7063553 C11.7072775,78.8159426 11.5741873,79.4675904 11.5395434,79.9177011 C11.3692342,82.130445 11.3189618,84.3672672 11.5395434,86.5755662 C11.7243847,88.4260599 12.0791232,90.2870736 12.7486208,92.0220855 C13.5717332,94.1551924 14.7081876,96.1719715 15.9766079,98.0742777 C16.2270523,98.4498804 16.7500148,98.5703633 17.1879537,98.6799506 C17.5789246,98.777785 18.2334179,99.0482719 18.3970311,98.6799506 C20.0630056,94.9295562 20.3000257,84.539972 19.6083769,82.1362333 C19.4408103,81.5538767 13.986943,76.0092469 11.7414344,78.5044643 C10.3324219,80.0701641 10.1388831,82.4612483 9.92441565,84.5566565 C9.52730028,88.4365877 9.67579467,92.3649905 9.92441565,96.257259 C10.080887,98.7068847 10.5835152,101.129109 11.1357615,103.520797 C11.1999978,103.798994 11.4741429,104.026095 11.7414344,104.12647 C11.9246734,104.195281 12.7736499,100.584079 13.9599666,95.0481816 C15.3152067,88.72401 18.2214748,82.5262504 21.2212362,76.891605 C21.6704367,76.0478427 22.131423,74.3707954 23.0382549,74.6730727 C23.931347,74.9707701 22.9413112,76.560881 23.0382549,77.4972779 C23.144189,78.5205134 23.2979206,79.5546057 23.6439278,80.523374 C24.3121613,82.3943273 25.3853568,84.1028183 26.064351,85.9698933 C26.2020927,86.3486505 25.8838421,86.8186288 26.064351,87.1789707 C26.1547749,87.3594797 26.5272655,87.0362122 26.670024,87.1789707 C26.8127824,87.3217291 26.670024,87.9865346 26.670024,87.7846436 C26.670024,84.8303649 27.0194449,80.5003343 24.8530052,78.1256352 C23.9463917,77.1318691 23.8001641,81.3239021 24.8530052,82.1611861 C26.1768982,83.2140273 28.2360022,82.1611861 29.9275007,82.1611861 C30.5165384,82.1611861 28.719983,82.345084 28.1603876,82.1611861 C25.8042368,81.3868927 30.7101118,81.580466 27.5796675,81.580466" id="Path-2" stroke="#CC775D" stroke-width="0.5"></path>
        </g>
    </g>
</svg>